<svg width="62" height="70" viewBox="0 0 62 70" fill="none" xmlns="http://www.w3.org/2000/svg">
<g clip-path="url(#clip0_23_3827)">
<path d="M42.1875 17.5C42.1875 14.5992 41.0352 11.8172 38.984 9.76602C36.9328 7.71484 34.1508 6.5625 31.25 6.5625C28.3492 6.5625 25.5672 7.71484 23.516 9.76602C21.4648 11.8172 20.3125 14.5992 20.3125 17.5C20.3125 20.4008 21.4648 23.1828 23.516 25.234C25.5672 27.2852 28.3492 28.4375 31.25 28.4375C34.1508 28.4375 36.9328 27.2852 38.984 25.234C41.0352 23.1828 42.1875 20.4008 42.1875 17.5ZM13.75 17.5C13.75 12.8587 15.5937 8.40752 18.8756 5.12563C22.1575 1.84374 26.6087 0 31.25 0C35.8913 0 40.3425 1.84374 43.6244 5.12563C46.9063 8.40752 48.75 12.8587 48.75 17.5C48.75 22.1413 46.9063 26.5925 43.6244 29.8744C40.3425 33.1563 35.8913 35 31.25 35C26.6087 35 22.1575 33.1563 18.8756 29.8744C15.5937 26.5925 13.75 22.1413 13.75 17.5ZM7.36523 63.4375H55.1348C53.918 54.7832 46.4805 48.125 37.498 48.125H25.002C16.0195 48.125 8.58203 54.7832 7.36523 63.4375ZM0.625 65.9395C0.625 52.4727 11.5352 41.5625 25.002 41.5625H37.498C50.9648 41.5625 61.875 52.4727 61.875 65.9395C61.875 68.1816 60.0566 70 57.8145 70H4.68555C2.44336 70 0.625 68.1816 0.625 65.9395Z" fill="#666666"/>
</g>
<defs>
<clipPath id="clip0_23_3827">
<rect width="61.25" height="70" fill="white" transform="translate(0.625)"/>
</clipPath>
</defs>
</svg>
