<?xml version="1.0" encoding="UTF-8"?>
<svg id="Layer_1" data-name="Layer 1" xmlns="http://www.w3.org/2000/svg" viewBox="0 0 568.17 754.25">
  <defs>
    <style>
      .cls-1 {
        fill: #ff953f;
        stroke-width: 0px;
      }
    </style>
  </defs>
  <path class="cls-1" d="M338.15,489.28c35.77,0,64.76-28.99,64.76-64.76s-28.99-64.76-64.76-64.76c-12.62,0-24.37,3.67-34.33,9.92l.55-.52-71.7-71.7c-5.33-5.33-13.97-5.33-19.3,0s-5.33,13.97,0,19.3l71.28,71.28.03-.03c-7.12,10.4-11.29,22.97-11.29,36.52,0,35.77,28.99,64.76,64.76,64.76h0ZM338.15,381.35c23.84,0,43.17,19.33,43.17,43.17s-19.33,43.17-43.17,43.17-43.17-19.33-43.17-43.17,19.33-43.17,43.17-43.17Z"/>
  <path class="cls-1" d="M338.15,674.65c-122.32,0-259.04-91.82-259.04-254.36,0-146.87,122.32-254.98,254.98-254.98,90.4,0,119.19,28.96,119.19,28.96h114.89c.23-27.74-100.06-102.27-220.87-107.6V25.42h41.14c7.02,0,12.71-5.69,12.71-12.71s-5.69-12.71-12.71-12.71h-109.53c-7.02,0-12.71,5.69-12.71,12.71s5.69,12.71,12.71,12.71h40.4v61.27h.04c-70.52,3.42-145.11,31.8-204.46,81.11l.03-.03-19.18-18.14-.23.23c3.27-6.08,5.21-12.97,5.21-20.35,0-23.84-19.33-43.17-43.17-43.17s-43.17,19.33-43.17,43.17,19.33,43.17,43.17,43.17c6.82,0,13.28-1.58,19.02-4.4l17.66,18.18,1.56-1.4C38.84,240.16,0,316.58,0,410.14c0,151.11,100.74,344.11,333.71,344.11,141.19,0,220.34-77.88,220.34-103.74h-107.93s-57.56,24.15-107.93,24.15h-.04ZM57.52,151.1c-11.92,0-21.59-9.66-21.59-21.59s9.66-21.59,21.59-21.59,21.59,9.66,21.59,21.59-9.66,21.59-21.59,21.59Z"/>
</svg>