<?xml version="1.0" encoding="UTF-8"?>
<svg id="Layer_2" data-name="Layer 2" xmlns="http://www.w3.org/2000/svg" viewBox="0 0 4918.13 754.25">
  <defs>
    <style>
      .cls-1 {
        fill: #ff953f;
      }

      .cls-1, .cls-2 {
        stroke-width: 0px;
      }

      .cls-2 {
        fill: #fff;
      }
    </style>
  </defs>
  <path class="cls-2" d="M569.64,604.01l41.98,39.98s-101.6,103.82-252.7,105.42C155.98,751.56,0,629.6,0,392.15S200.67,39.57,366.17,39.57s249.45,104.36,249.45,104.36l-39.98,39.55s-79.15-86.35-208.67-86.35S66.3,197.87,66.3,392.15s143.05,297.21,294.16,297.21c101.18,0,209.19-85.35,209.19-85.35h-.01Z"/>
  <path class="cls-2" d="M1151.28,161.89l21.59-50.37s-93.17-71.96-215.68-71.96-244.83,71.96-244.83,194.28,111.53,161.9,226.66,190.68c85.43,21.36,201.47,50.37,201.47,143.91,0,64.76-71.96,122.32-179.89,122.32-158.3,0-230.26-86.35-230.26-86.35l-35.98,50.37s86.35,93.54,280.62,93.54c115.13,0,230.26-71.96,230.26-179.89,0-151.11-164-185.73-237.45-201.47-100.74-21.59-187.08-57.56-187.08-136.71s64.76-130.95,169.09-130.95,201.47,62.6,201.47,62.6h.01Z"/>
  <path class="cls-2" d="M1748.51,161.89l21.59-50.37s-93.17-71.96-215.68-71.96-244.83,71.96-244.83,194.28,111.53,161.9,226.66,190.68c85.43,21.36,201.47,50.37,201.47,143.91,0,64.76-71.96,122.32-179.89,122.32-158.3,0-230.26-86.35-230.26-86.35l-35.98,50.37s86.35,93.54,280.62,93.54c115.13,0,230.26-71.96,230.26-179.89,0-151.11-164-185.73-237.45-201.47-100.74-21.59-187.08-57.56-187.08-136.71s64.76-130.95,169.09-130.95,201.47,62.6,201.47,62.6h.01Z"/>
  <path class="cls-1" d="M2688.7,748.32h72.61l-167.33-244.65c86.35-43.17,151.11-115.13,151.11-230.26,0-151.11-129.52-226.85-246.13-226.85h-293.53v61.35h295.02c107.93,0,179.89,64.76,179.89,179.89,0,93.54-57.56,172.69-186.21,172.69h-288.69v287.82h68.93v-225.45h262.06l152.28,225.45h-.01Z"/>
  <polygon class="cls-1" points="2795.46 741.13 3117.83 46.57 3176.38 46.57 3497.01 741.13 3430.1 741.13 3146.23 125.17 2865.05 741.13 2795.46 741.13"/>
  <g>
    <path class="cls-1" d="M3896.37,489.28c35.77,0,64.76-28.99,64.76-64.76s-28.99-64.76-64.76-64.76c-12.62,0-24.37,3.67-34.33,9.92l.55-.52-71.7-71.7c-5.33-5.33-13.97-5.33-19.3,0s-5.33,13.97,0,19.3l71.28,71.28.03-.03c-7.12,10.4-11.29,22.97-11.29,36.52,0,35.77,28.99,64.76,64.76,64.76h0ZM3896.37,381.35c23.84,0,43.17,19.33,43.17,43.17s-19.33,43.17-43.17,43.17-43.17-19.33-43.17-43.17,19.33-43.17,43.17-43.17Z"/>
    <path class="cls-1" d="M3896.37,674.65c-122.32,0-259.04-91.82-259.04-254.36,0-146.87,122.32-254.98,254.98-254.98,90.4,0,119.19,28.96,119.19,28.96h114.89c.23-27.74-100.06-102.27-220.87-107.6V25.42h41.14c7.02,0,12.71-5.69,12.71-12.71s-5.69-12.71-12.71-12.71h-109.53c-7.02,0-12.71,5.69-12.71,12.71s5.69,12.71,12.71,12.71h40.4v61.27h.04c-70.52,3.42-145.11,31.8-204.46,81.11l.03-.03-19.18-18.14-.23.23c3.27-6.08,5.21-12.97,5.21-20.35,0-23.84-19.33-43.17-43.17-43.17s-43.17,19.33-43.17,43.17,19.33,43.17,43.17,43.17c6.82,0,13.28-1.58,19.02-4.4l17.66,18.18,1.56-1.4c-56.95,55.1-95.79,131.52-95.79,225.08,0,151.11,100.74,344.11,333.71,344.11,141.19,0,220.34-77.88,220.34-103.74h-107.93s-57.56,24.15-107.93,24.15h-.04ZM3615.74,151.1c-11.92,0-21.59-9.66-21.59-21.59s9.66-21.59,21.59-21.59,21.59,9.66,21.59,21.59-9.66,21.59-21.59,21.59Z"/>
  </g>
  <path class="cls-1" d="M4366.66,115.12h520.1c17.33,0,31.37,14.04,31.37,31.37h0c0,17.33-14.04,31.37-31.37,31.37h-520.1c-17.33,0-31.37-14.04-31.37-31.37h0c0-17.33,14.04-31.37,31.37-31.37Z"/>
  <path class="cls-1" d="M4244.34,366.96h520.1c17.33,0,31.37,14.04,31.37,31.37h0c0,17.33-14.04,31.37-31.37,31.37h-520.1c-17.33,0-31.37-14.04-31.37-31.37h0c0-17.33,14.04-31.37,31.37-31.37Z"/>
  <path class="cls-1" d="M4366.66,618.8h520.1c17.33,0,31.37,14.04,31.37,31.37h0c0,17.33-14.04,31.37-31.37,31.37h-520.1c-17.33,0-31.37-14.04-31.37-31.37h0c0-17.33,14.04-31.37,31.37-31.37Z"/>
</svg>